<svg version="1.1" id="Layer_1" xmlns="http://www.w3.org/2000/svg" xmlns:xlink="http://www.w3.org/1999/xlink" x="0px" y="0px"
	 width="27.5px" height="27.155px" viewBox="0 0 27.5 27.155" enable-background="new 0 0 27.5 27.155" xml:space="preserve">
<g id="Picture">
	<circle fill="#00BFA5" cx="6.211" cy="5.827" r="2.849"/>
	<path fill="#00BFA5" d="M16.396,7.277c-0.501-0.897-1.358-0.919-1.904-0.047l-2.683,4.287c-0.546,0.873-1.633,1.148-2.416,0.615
		c-0.784-0.534-1.968-0.329-2.634,0.454l-2.673,3.15c-0.665,0.785-0.368,1.424,0.66,1.424h15.307c1.029,0,1.46-0.733,0.957-1.632
		L16.396,7.277z"/>
</g>
<path fill="#00BFA5" d="M24.583,18.5V0.928c0-0.51-0.417-0.928-0.927-0.928H0.927C0.417,0,0,0.418,0,0.928v22.419
	c0,0.51,0.417,0.928,0.927,0.928h17.714C18.735,21.07,21.357,18.5,24.583,18.5z M2.347,2.502h19.619V18.37H2.347V2.502z"/>
<g>
	<path fill="#00BFA5" d="M23.122,17.788c-2.545,0-4.609,2.064-4.609,4.609c0,2.544,2.064,4.608,4.609,4.608
		c2.545,0,4.609-2.064,4.609-4.608C27.731,19.852,25.667,17.788,23.122,17.788z M26.055,22.816h-2.515v2.514h-0.837v-2.514h-2.515
		v-0.837h2.515v-2.514h0.837v2.514h2.515V22.816z"/>
	<circle fill="none" stroke="#FFFFFF" stroke-width="0.6507" stroke-miterlimit="10" cx="23.122" cy="22.397" r="4.778"/>
</g>
</svg>
